#!OML:ASF H:\Dans Jumps\Project 1\Capture day 1\Session 1\subject.ASF
:FULLY-SPECIFIED
:DEGREES
531
root 0.321226 17.8045 3.13104 8.5088 -0.746921 -1.22061
lowerback -2.26257 -0.0609081 -0.103989
upperback 2.87713 -0.133231 1.47095
thorax 4.23709 -0.0949185 1.56788
lowerneck -12.4566 0.255399 -1.76219
upperneck 29.4015 0.627017 0.598928
head 11.6347 0.160842 0.611211
rclavicle -2.48481e-016 -2.38542e-015
rhumerus -25.0793 -14.9098 -82.2953
rradius 23.0672
rwrist 35.2196
rhand -22.3657 -29.3273
rfingers 7.12502
rthumb 4.05559 -59.2685
lclavicle -2.48481e-016 -2.38542e-015
lhumerus -18.5633 0.469629 89.6877
lradius 16.3082
lwrist 3.04144
lhand -25.8674 -6.63542
lfingers 7.12502
lthumb 0.673808 23.3433
rfemur -14.6033 -2.14394 19.7205
rtibia 19.9547
rfoot -11.958 -0.0645429
rtoes 18.6933
lfemur -10.7623 6.31126 -18.0058
ltibia 14.8927
lfoot -9.47476 5.04069
ltoes 2.17637
532
root 0.324413 17.8035 3.12871 8.46708 -0.768428 -1.24138
lowerback -2.28177 -0.0587248 -0.0858695
upperback 2.87925 -0.131831 1.48553
thorax 4.25018 -0.0939692 1.5729
lowerneck -12.4939 0.258459 -1.75041
upperneck 29.3412 0.634504 0.580344
head 11.6188 0.163591 0.60308
rclavicle -4.37326e-015 2.5842e-015
rhumerus -25.0988 -14.9799 -82.2448
rradius 23.0418
rwrist 35.2697
rhand -22.3447 -29.3499
rfingers 7.12502
rthumb 4.07589 -59.2907
lclavicle -4.37326e-015 2.5842e-015
lhumerus -18.6144 0.394557 89.7387
lradius 16.3098
lwrist 3.05045
lhand -25.8321 -6.53956
lfingers 7.12502
lthumb 0.707945 23.439
rfemur -14.5654 -2.11135 19.7292
rtibia 19.9504
rfoot -11.9558 -0.0972819
rtoes 18.6448
lfemur -10.7514 6.31057 -17.9923
ltibia 14.9517
lfoot -9.46865 5.06937
ltoes 2.15547
533
root 0.32733 17.8025 3.12632 8.42643 -0.794227 -1.25179
lowerback -2.29711 -0.0555143 -0.0801612
upperback 2.87729 -0.128289 1.49592
thorax 4.25678 -0.0922298 1.58066
lowerneck -12.5348 0.25964 -1.7379
upperneck 29.2897 0.639203 0.561757
head 11.6071 0.165097 0.594522
rclavicle -6.4605e-016 -6.16232e-015
rhumerus -25.1227 -15.0362 -82.2002
rradius 23.0235
rwrist 35.3131
rhand -22.3287 -29.3602
rfingers 7.12502
rthumb 4.09135 -59.3006
lclavicle -6.4605e-016 -6.16232e-015
lhumerus -18.6721 0.306039 89.7894
lradius 16.319
lwrist 3.08127
lhand -25.7879 -6.37675
lfingers 7.12502
lthumb 0.750635 23.6017
rfemur -14.5348 -2.06884 19.7267
rtibia 19.9562
rfoot -11.9574 -0.138855
rtoes 18.5882
lfemur -10.7339 6.31656 -17.9896
ltibia 14.9943
lfoot -9.45358 5.09507
ltoes 2.09431
534
root 0.330136 17.8014 3.12401 8.38735 -0.823692 -1.25272
lowerback -2.31351 -0.0509512 -0.0827543
upperback 2.87285 -0.122356 1.50102
thorax 4.26134 -0.0894533 1.58776
lowerneck -12.5734 0.258837 -1.72313
upperneck 29.2413 0.640053 0.54441
head 11.5962 0.165248 0.585533
rclavicle 1.63997e-015 1.19271e-015
rhumerus -25.1495 -15.0833 -82.1618
rradius 23.0098
rwrist 35.3498
rhand -22.3104 -29.3606
rfingers 7.12502
rthumb 4.10902 -59.3007
lclavicle 1.63997e-015 1.19271e-015
lhumerus -18.7334 0.216643 89.8357
lradius 16.322
lwrist 3.10755
lhand -25.748 -6.20432
lfingers 7.12502
lthumb 0.789091 23.774
rfemur -14.5104 -2.02684 19.7138
rtibia 19.9702
rfoot -11.9629 -0.176535
rtoes 18.5412
lfemur -10.7106 6.32463 -17.9976
ltibia 15.0222
lfoot -9.43442 5.12332
ltoes 2.02396
535
root 0.332802 17.8004 3.12174 8.35051 -0.855314 -1.24565
lowerback -2.32992 -0.0458567 -0.0940076
upperback 2.8656 -0.115156 1.50246
thorax 4.26295 -0.0862329 1.59599
lowerneck -12.6097 0.256462 -1.70995
upperneck 29.196 0.637809 0.531003
head 11.5861 0.164298 0.577872
rclavicle 1.98785e-016 6.75868e-015
rhumerus -25.1745 -15.1346 -82.1257
rradius 22.9907
rwrist 35.3891
rhand -22.3191 -29.3332
rfingers 7.12502
rthumb 4.10061 -59.2735
lclavicle 1.98785e-016 6.75868e-015
lhumerus -18.8008 0.138672 89.8765
lradius 16.3202
lwrist 3.12348
lhand -25.7162 -6.03339
lfingers 7.12502
lthumb 0.819825 23.9448
rfemur -14.4908 -1.98524 19.6922
rtibia 19.9883
rfoot -11.9719 -0.212851
rtoes 18.4859
lfemur -10.6842 6.33013 -18.0144
ltibia 15.0392
lfoot -9.41975 5.15583
ltoes 1.99637
536
root 0.335501 17.7995 3.11955 8.31589 -0.884816 -1.23286
lowerback -2.34766 -0.0426663 -0.109495
upperback 2.85687 -0.11021 1.50156
thorax 4.26384 -0.0842168 1.60404
lowerneck -12.6397 0.253908 -1.69586
upperneck 29.1469 0.63532 0.516188
head 11.5732 0.16318 0.569456
rclavicle 5.46658e-016 -1.74931e-014
rhumerus -25.1994 -15.1809 -82.0941
rradius 22.9735
rwrist 35.4192
rhand -22.3183 -29.3112
rfingers 7.12502
rthumb 4.10143 -59.2515
lclavicle 5.46658e-016 -1.74931e-014
lhumerus -18.8659 0.0756318 89.9122
lradius 16.2974
lwrist 3.1304
lhand -25.6973 -5.89553
lfingers 7.12502
lthumb 0.838149 24.0826
rfemur -14.4736 -1.95789 19.6648
rtibia 20.0077
rfoot -11.983 -0.236865
rtoes 18.4282
lfemur -10.6551 6.32974 -18.0383
ltibia 15.0475
lfoot -9.4034 5.19379
ltoes 1.97521
537
root 0.338335 17.7986 3.11756 8.28414 -0.912081 -1.21997
lowerback -2.35891 -0.0431717 -0.124504
upperback 2.84226 -0.110093 1.50058
thorax 4.25508 -0.0845177 1.61143
lowerneck -12.6717 0.249247 -1.68862
upperneck 29.1008 0.629103 0.509434
head 11.562 0.160581 0.564726
rclavicle 1.2921e-015 2.98177e-015
rhumerus -25.2302 -15.2187 -82.0659
rradius 22.9585
rwrist 35.4424
rhand -22.3029 -29.2991
rfingers 7.12502
rthumb 4.11625 -59.2391
lclavicle 1.2921e-015 2.98177e-015
lhumerus -18.9468 0.0768896 89.9318
lradius 16.2616
lwrist 3.05721
lhand -25.7053 -5.87535
lfingers 7.12502
lthumb 0.830395 24.1028
rfemur -14.4575 -1.94568 19.6371
rtibia 20.025
rfoot -11.9948 -0.245746
rtoes 18.3711
lfemur -10.6249 6.32318 -18.0632
ltibia 15.0506
lfoot -9.38014 5.23716
ltoes 1.92033
538
root 0.341263 17.7979 3.11552 8.25449 -0.935296 -1.20672
lowerback -2.37271 -0.0461832 -0.137442
upperback 2.82775 -0.113415 1.49916
thorax 4.24796 -0.0864605 1.61698
lowerneck -12.6928 0.246044 -1.68591
upperneck 29.0432 0.624927 0.505725
head 11.5439 0.158862 0.562072
rclavicle -6.4605e-016 0
rhumerus -25.2605 -15.2542 -82.0412
rradius 22.9473
rwrist 35.4593
rhand -22.2723 -29.2957
rfingers 7.12502
rthumb 4.14584 -59.2351
lclavicle -6.4605e-016 0
lhumerus -19.0292 0.108858 89.9418
lradius 16.1984
lwrist 2.93018
lhand -25.751 -6.00447
lfingers 7.12502
lthumb 0.786193 23.9738
rfemur -14.4416 -1.94689 19.6093
rtibia 20.0382
rfoot -12.0041 -0.242856
rtoes 18.3198
lfemur -10.5959 6.31055 -18.0893
ltibia 15.0521
lfoot -9.36351 5.28428
ltoes 1.89058
539
root 0.344275 17.7973 3.11359 8.22604 -0.956498 -1.19953
lowerback -2.39044 -0.0498293 -0.140895
upperback 2.815 -0.118064 1.49813
thorax 4.24492 -0.0887966 1.61755
lowerneck -12.7154 0.242793 -1.68551
upperneck 28.9811 0.620673 0.504079
head 11.5244 0.157139 0.560552
rclavicle 4.96962e-016 -3.18055e-015
rhumerus -25.2857 -15.2898 -82.0205
rradius 22.9371
rwrist 35.4687
rhand -22.245 -29.2967
rfingers 7.12502
rthumb 4.17217 -59.2356
lclavicle 4.96962e-016 -3.18055e-015
lhumerus -19.1107 0.168974 89.9407
lradius 16.1116
lwrist 2.7553
lhand -25.8322 -6.29874
lfingers 7.12502
lthumb 0.707849 23.6798
rfemur -14.4238 -1.95496 19.588
rtibia 20.0464
rfoot -12.0106 -0.232279
rtoes 18.2737
lfemur -10.5683 6.29579 -18.1092
ltibia 15.0554
lfoot -9.3411 5.33438
ltoes 1.81522
540
root 0.347323 17.7966 3.11177 8.1969 -0.976444 -1.19848
lowerback -2.4154 -0.0520096 -0.133414
upperback 2.80578 -0.121298 1.49617
thorax 4.24957 -0.0901194 1.61114
lowerneck -12.736 0.24149 -1.68321
upperneck 28.9134 0.618263 0.50389
head 11.5024 0.156684 0.559452
rclavicle -3.67752e-015 1.31198e-014
rhumerus -25.3062 -15.3244 -82.0046
rradius 22.9278
rwrist 35.4698
rhand -22.2 -29.3059
rfingers 7.12502
rthumb 4.21568 -59.2439
lclavicle -3.67752e-015 1.31198e-014
lhumerus -19.1881 0.23722 89.9318
lradius 15.9925
lwrist 2.5259
lhand -25.9633 -6.77212
lfingers 7.12502
lthumb 0.581237 23.2068
rfemur -14.4028 -1.96777 19.5736
rtibia 20.0507
rfoot -12.0155 -0.21523
rtoes 18.2389
lfemur -10.5409 6.28186 -18.1225
ltibia 15.0621
lfoot -9.32909 5.38411
ltoes 1.77065
541
root 0.350237 17.7961 3.10984 8.16594 -0.996212 -1.20328
lowerback -2.44351 -0.0524623 -0.118154
upperback 2.7996 -0.122649 1.49456
thorax 4.2591 -0.0903022 1.60085
lowerneck -12.7556 0.242437 -1.68002
upperneck 28.8427 0.619037 0.503149
head 11.4789 0.157724 0.558407
rclavicle 1.63997e-015 1.31198e-014
rhumerus -25.3192 -15.3667 -81.9898
rradius 22.9134
rwrist 35.4746
rhand -22.1994 -29.2963
rfingers 7.12502
rthumb 4.21626 -59.2343
lclavicle 1.63997e-015 1.31198e-014
lhumerus -19.2588 0.302978 89.9196
lradius 15.8653
lwrist 2.30213
lhand -26.0843 -7.24192
lfingers 7.12502
lthumb 0.464293 22.7373
rfemur -14.3784 -1.97353 19.5661
rtibia 20.0514
rfoot -12.0173 -0.204975
rtoes 18.2046
lfemur -10.5149 6.2701 -18.1285
ltibia 15.0738
lfoot -9.31801 5.43226
ltoes 1.72194
542
root 0.352982 17.7954 3.10791 8.13312 -1.01617 -1.21254
lowerback -2.47536 -0.0507442 -0.0969553
upperback 2.79746 -0.12143 1.49232
thorax 4.27486 -0.0890519 1.58675
lowerneck -12.7754 0.243875 -1.67481
upperneck 28.7667 0.619907 0.502797
head 11.4535 0.159124 0.557145
rclavicle 1.2921e-015 2.78299e-015
rhumerus -25.329 -15.4078 -81.9789
rradius 22.9061
rwrist 35.4792
rhand -22.2064 -29.279
rfingers 7.12502
rthumb 4.20949 -59.2171
lclavicle 1.2921e-015 2.78299e-015
lhumerus -19.3174 0.364675 89.9045
lradius 15.7377
lwrist 2.09812
lhand -26.1702 -7.61906
lfingers 7.12502
lthumb 0.381365 22.3603
rfemur -14.3509 -1.97176 19.5642
rtibia 20.0504
rfoot -12.0184 -0.201429
rtoes 18.1749
lfemur -10.4897 6.26317 -18.1287
ltibia 15.0905
lfoot -9.30766 5.47758
ltoes 1.65284
543
root 0.355515 17.7948 3.10597 8.09762 -1.03502 -1.22375
lowerback -2.5044 -0.0486681 -0.0743503
upperback 2.7971 -0.119808 1.48995
thorax 4.29086 -0.0875598 1.57177
lowerneck -12.7905 0.244405 -1.67131
upperneck 28.6824 0.619225 0.504361
head 11.424 0.159937 0.556614
rclavicle 9.93923e-017 3.37934e-015
rhumerus -25.3331 -15.466 -81.9656
rradius 22.8915
rwrist 35.5032
rhand -22.2374 -29.2408
rfingers 7.12502
rthumb 4.17955 -59.1796
lclavicle 9.93923e-017 3.37934e-015
lhumerus -19.3743 0.434689 89.8862
lradius 15.6273
lwrist 1.91477
lhand -26.2123 -7.8561
lfingers 7.12502
lthumb 0.340723 22.1234
rfemur -14.3199 -1.96023 19.5651
rtibia 20.0493
rfoot -12.0196 -0.208627
rtoes 18.1421
lfemur -10.4646 6.2617 -18.1253
ltibia 15.1114
lfoot -9.30989 5.51483
ltoes 1.63843
